<svg xmlns="http://www.w3.org/2000/svg" version="1.1" xmlns:xlink="http://www.w3.org/1999/xlink" xmlns:svgjs="http://svgjs.com/svgjs" width="690" height="600" preserveAspectRatio="none" viewBox="0 0 690 600"><g mask="url(&quot;#SvgjsMask1552&quot;)" fill="none"><rect width="690" height="600" x="0" y="0" fill="url(#SvgjsLinearGradient1553)"></rect><path d="M690 0L574.87 0L690 252.23z" fill="rgba(255, 255, 255, .1)"></path><path d="M574.87 0L690 252.23L690 394.51L263.48 0z" fill="rgba(255, 255, 255, .075)"></path><path d="M263.48 0L690 394.51L690 505.32L163.68 0z" fill="rgba(255, 255, 255, .05)"></path><path d="M163.68000000000006 0L690 505.32L690 511.39L124.14000000000007 0z" fill="rgba(255, 255, 255, .025)"></path><path d="M0 600L0.2 600L0 426.93z" fill="rgba(0, 0, 0, .1)"></path><path d="M0 426.93L0.2 600L114.91 600L0 279.83000000000004z" fill="rgba(0, 0, 0, .075)"></path><path d="M0 279.83000000000004L114.91 600L274.54999999999995 600L0 197.98000000000005z" fill="rgba(0, 0, 0, .05)"></path><path d="M0 197.98000000000002L274.54999999999995 600L548.18 600L0 195.97000000000003z" fill="rgba(0, 0, 0, .025)"></path></g><defs><mask id="SvgjsMask1552"><rect width="690" height="600" fill="#ffffff"></rect></mask><linearGradient x1="96.74%" y1="103.75%" x2="3.26%" y2="-3.75%" gradientUnits="userSpaceOnUse" id="SvgjsLinearGradient1553"><stop stop-color="#0e2a47" offset="0"></stop><stop stop-color="rgba(239, 255, 177, 0.22)" offset="1"></stop></linearGradient></defs></svg>